<svg width="48" height="48" viewBox="0 0 48 48" fill="none" xmlns="http://www.w3.org/2000/svg">
<rect x="0.5" y="0.5" width="47" height="47" rx="11.5" fill="white"/>
<rect x="0.5" y="0.5" width="47" height="47" rx="11.5" stroke="#E4E7EC"/>
<ellipse cx="27.5" cy="23" rx="6.5" ry="2" stroke="#38197A" stroke-width="1.5"/>
<path d="M34 27.5C34 28.6046 31.0899 29.5 27.5 29.5C23.9101 29.5 21 28.6046 21 27.5" stroke="#38197A" stroke-width="1.5"/>
<path d="M34 23V31.8C34 33.015 31.0899 34 27.5 34C23.9101 34 21 33.015 21 31.8V23" stroke="#38197A" stroke-width="1.5"/>
<ellipse cx="20.5" cy="16" rx="6.5" ry="2" stroke="#38197A" stroke-width="1.5"/>
<path d="M18 23C16.1082 22.7698 14.3699 22.1745 14 21M18 28C16.1082 27.7698 14.3699 27.1745 14 26" stroke="#38197A" stroke-width="1.5" stroke-linecap="round"/>
<path d="M18 33C16.1082 32.7698 14.3699 32.1745 14 31L14 16" stroke="#38197A" stroke-width="1.5" stroke-linecap="round"/>
<path d="M27 18V16" stroke="#38197A" stroke-width="1.5" stroke-linecap="round"/>
</svg>
