<svg width="48" height="49" viewBox="0 0 48 49" fill="none" xmlns="http://www.w3.org/2000/svg">
<g clip-path="url(#clip0_11_67218)">
<path d="M24 48.5C37.2548 48.5 48 37.7548 48 24.5C48 11.2452 37.2548 0.5 24 0.5C10.7452 0.5 0 11.2452 0 24.5C0 37.7548 10.7452 48.5 24 48.5Z" fill="#FECB32"/>
<path fill-rule="evenodd" clip-rule="evenodd" d="M6.4954 16.4325L6.04236 18.1838L15.0624 14.2692L6.4954 16.4325Z" fill="#FF7200"/>
<path d="M6.47186 21.3512V22.4854H9.41923V18.6706L6.47186 21.3512Z" fill="#D43264"/>
<path d="M6.47186 21.3553V22.4854H8.88265V19.3651L6.47186 21.3553Z" fill="#FF7200"/>
<path d="M29.0481 13.6892C29.2214 13.6419 29.5523 13.5946 30.0408 13.5946C31.2383 13.5946 31.9158 14.1779 31.9158 15.1552C31.9158 16.2429 31.128 16.8893 29.8517 16.8893C29.505 16.8893 29.2529 16.8735 29.0481 16.8262V13.6892ZM26.6688 22.4854H29.0481V18.6863C29.2687 18.7179 29.5523 18.7336 29.8674 18.7336C31.2855 18.7336 32.4988 18.3868 33.3182 17.6144C33.9485 17.0153 34.2951 16.1326 34.2951 15.0922C34.2951 14.0518 33.8382 13.169 33.1606 12.6331C32.4515 12.0655 31.3958 11.7818 29.9147 11.7818C28.4493 11.7818 27.4094 11.8764 26.6688 12.0025V22.4854Z" fill="#005EC2"/>
<path d="M41.1635 16.038H37.2558V13.8311H41.3998V11.8606H34.845V22.4854H41.6204V20.5149H37.2558V17.9927H41.1635V16.038Z" fill="#005EC2"/>
<path d="M6.47186 11.8606V17.7418L7.94369 17.1453L15.0703 14.2568C14.3261 14.8712 13.5818 15.4856 12.8376 16.1V22.4854H15.2326V11.8606H12.8376C12.8376 12.5686 12.8376 13.2767 12.8376 13.9847C12.8376 14.3647 12.65 14.8712 11.7948 15.0332L8.88268 15.585V11.8606H6.47186Z" fill="#005EC2"/>
<path fill-rule="evenodd" clip-rule="evenodd" d="M20.8991 11.9706C23.9283 11.9706 26.384 14.4273 26.384 17.4579C26.384 20.4885 23.9283 22.9452 20.8991 22.9452C17.8699 22.9452 15.4142 20.4885 15.4142 17.4579C15.4142 14.4273 17.8699 11.9706 20.8991 11.9706ZM20.8991 14.6423C22.4534 14.6423 23.7135 15.9029 23.7135 17.4579C23.7135 19.0129 22.4534 20.2735 20.8991 20.2735C19.3448 20.2735 18.0847 19.0129 18.0847 17.4579C18.0847 15.9029 19.3448 14.6423 20.8991 14.6423Z" fill="#005EC2"/>
<path d="M6.78705 25.5379V24.212H7.29353C7.38253 24.212 7.45059 24.2164 7.49777 24.2247C7.56366 24.2355 7.61893 24.2562 7.6636 24.2864C7.70825 24.317 7.74417 24.3596 7.77134 24.4142C7.79851 24.4688 7.81194 24.529 7.81194 24.5947C7.81194 24.7071 7.7757 24.8025 7.70296 24.8802C7.63051 24.9583 7.49904 24.9972 7.30921 24.9972H6.9651V25.5379H6.78711H6.78705ZM6.96504 24.8416H7.31166C7.42659 24.8416 7.50776 24.8207 7.55616 24.7784C7.60423 24.7361 7.62829 24.6768 7.62829 24.6C7.62829 24.5447 7.61423 24.4972 7.58581 24.4577C7.55743 24.4182 7.51992 24.392 7.47372 24.3793C7.44371 24.3716 7.38847 24.3676 7.3082 24.3676H6.96501L6.96504 24.8416ZM9.01242 25.5379L9.52705 24.212H9.72222L10.2684 25.5379H10.0663L9.91115 25.1361H9.34626L9.20075 25.5379H9.01242ZM9.39838 24.9935H9.85554L9.71567 24.6259C9.67351 24.5142 9.64166 24.4219 9.61948 24.3491C9.60106 24.4355 9.5764 24.5204 9.54547 24.6043L9.39838 24.9935ZM11.9101 25.5379V24.9762L11.393 24.212H11.6066L11.8717 24.6132C11.9211 24.6876 11.9669 24.762 12.0088 24.8364C12.0497 24.767 12.0994 24.6892 12.1571 24.6028L12.4169 24.212H12.624L12.0881 24.9762V25.5379H11.9101ZM14.0397 25.5379V24.212H14.3057L14.623 25.1506C14.6524 25.2379 14.6736 25.3033 14.687 25.3469C14.7023 25.2987 14.7263 25.2277 14.7588 25.1342L15.0817 24.2121H15.3194V25.5379H15.1489V24.4287L14.7573 25.5379H14.5974L14.2102 24.4084V25.5379L14.0397 25.5379ZM16.8696 25.5379V24.212H17.8383V24.3676H17.0476V24.775H17.7877V24.9305H17.0476V25.3823H17.8701V25.5379H16.8696ZM19.3755 25.5379V24.212H19.5578L20.2617 25.2527V24.212H20.4322V25.5379H20.2498L19.546 24.4972V25.5379H19.3755ZM22.3331 25.5379V24.3676H21.891V24.212H22.9533V24.3676H22.5111V25.5379H22.3331ZM25.3477 25.112L25.5144 25.0972C25.5222 25.1638 25.5406 25.2185 25.5697 25.2614C25.5987 25.304 25.6437 25.3386 25.7046 25.3651C25.7655 25.3913 25.8342 25.4046 25.9104 25.4046C25.9781 25.4046 26.0378 25.3947 26.0896 25.3747C26.1414 25.3546 26.1798 25.3271 26.2052 25.2923C26.2305 25.2574 26.2432 25.2194 26.2432 25.1787C26.2432 25.1373 26.2311 25.1012 26.2067 25.07C26.1824 25.0392 26.1421 25.0133 26.0859 24.992C26.05 24.9784 25.9703 24.9568 25.847 24.9275C25.7236 24.8981 25.6375 24.8707 25.5881 24.8447C25.5241 24.8114 25.4766 24.7701 25.4454 24.721C25.4138 24.6719 25.3982 24.6167 25.3982 24.5559C25.3982 24.4886 25.4176 24.426 25.456 24.368C25.4944 24.3096 25.5503 24.2655 25.6243 24.2352C25.698 24.205 25.7801 24.1899 25.8704 24.1899C25.9697 24.1899 26.0574 24.2056 26.1333 24.2374C26.2092 24.2689 26.2676 24.3155 26.3085 24.3772C26.3494 24.4386 26.3713 24.5084 26.3744 24.5861L26.2039 24.5991C26.1948 24.5155 26.1639 24.4522 26.1111 24.4096C26.0584 24.3667 25.9803 24.3454 25.8772 24.3454C25.7698 24.3454 25.6915 24.3649 25.6424 24.4038C25.5934 24.4426 25.5687 24.4896 25.5687 24.5445C25.5687 24.592 25.5862 24.6312 25.6209 24.6621C25.6552 24.6926 25.7442 24.7244 25.8885 24.7565C26.0328 24.7889 26.1318 24.817 26.1855 24.8411C26.2633 24.8766 26.321 24.9213 26.3582 24.9759C26.3953 25.0302 26.4138 25.0929 26.4138 25.1639C26.4138 25.2346 26.3935 25.3006 26.3526 25.363C26.3117 25.4253 26.2533 25.4737 26.1767 25.5083C26.1002 25.5429 26.0143 25.5602 25.9185 25.5602C25.7973 25.5602 25.6958 25.5426 25.614 25.5077C25.5319 25.4728 25.4679 25.4204 25.4214 25.35C25.3745 25.2799 25.3501 25.2006 25.3477 25.112V25.112ZM27.9209 25.5379V24.212H28.8896V24.3676H28.0989V24.775H28.839V24.9305H28.0989V25.3823H28.9214V25.5379H27.9209ZM30.4324 25.5379V24.212H31.027C31.1466 24.212 31.2374 24.2241 31.2996 24.2478C31.3617 24.2716 31.4114 24.3136 31.4485 24.3737C31.4857 24.4339 31.5041 24.5006 31.5041 24.5734C31.5041 24.6676 31.4732 24.7469 31.4117 24.8114C31.3502 24.8759 31.2553 24.9166 31.1266 24.9342C31.1737 24.9564 31.2093 24.9787 31.2337 25.0003C31.2855 25.0472 31.3345 25.1061 31.3805 25.1768L31.6125 25.5379H31.3908L31.2134 25.262C31.1619 25.182 31.1191 25.1212 31.0857 25.079C31.0519 25.0367 31.022 25.0074 30.9955 24.9904C30.9692 24.9737 30.9421 24.962 30.9146 24.9552C30.8946 24.9512 30.8618 24.949 30.8159 24.949H30.6104V25.5379L30.4324 25.5379ZM30.6104 24.7972H30.9914C31.0726 24.7972 31.1356 24.7889 31.1812 24.7722C31.2268 24.7559 31.2615 24.7293 31.2849 24.6926C31.3086 24.6562 31.3205 24.6166 31.3205 24.5738C31.3205 24.5111 31.2977 24.4593 31.2518 24.4188C31.2059 24.3784 31.1335 24.3583 31.0345 24.3583H30.6104L30.6104 24.7972ZM33.392 25.5379L32.8736 24.212H33.0659L33.4144 25.1756C33.4422 25.2527 33.466 25.3249 33.4847 25.3925C33.5053 25.32 33.5293 25.2478 33.5568 25.1756L33.9184 24.212H34.0995L33.5765 25.5379H33.392ZM35.5511 25.5379V24.212H35.8399V25.5379H35.5511ZM38.259 25.0728L38.437 25.1172C38.3998 25.2614 38.333 25.3709 38.2365 25.4465C38.14 25.5222 38.022 25.5601 37.8824 25.5601C37.7381 25.5601 37.6207 25.5311 37.5301 25.4728C37.4396 25.4148 37.3709 25.3305 37.3237 25.2203C37.2766 25.1099 37.2529 24.9917 37.2529 24.8651C37.2529 24.7272 37.2794 24.6068 37.3328 24.504C37.3862 24.4013 37.4621 24.3232 37.5605 24.2698C37.6588 24.2164 37.7672 24.1898 37.8852 24.1898C38.0195 24.1898 38.1322 24.2235 38.2234 24.2911C38.3149 24.3587 38.3786 24.4534 38.4145 24.5756L38.2402 24.6164C38.2093 24.5201 38.164 24.4497 38.105 24.4059C38.046 24.3618 37.9717 24.3398 37.8821 24.3398C37.7793 24.3398 37.6932 24.3642 37.6241 24.413C37.5551 24.4618 37.5064 24.5275 37.4786 24.6096C37.4505 24.692 37.4364 24.7768 37.4364 24.8642C37.4364 24.9768 37.453 25.0753 37.4861 25.1592C37.5192 25.2435 37.5707 25.3061 37.6407 25.3478C37.7106 25.3894 37.7862 25.4101 37.8677 25.4101C37.967 25.4101 38.0507 25.3817 38.1194 25.3252C38.1881 25.2685 38.2346 25.1845 38.2589 25.0728L38.259 25.0728ZM39.922 25.5379V24.212H40.8907V24.3676H40.1V24.775H40.84V24.9305H40.1V25.3823H40.9225V25.5379H39.922Z" fill="#4B4B4D"/>
<path d="M6.16644 37.2184H10.1305C12.3154 37.2184 14.1257 36.3105 14.1257 34.213C14.1257 32.8668 13.4078 32.1154 11.972 31.8337V31.771C13.1581 31.458 13.6575 30.4562 13.6575 29.5796C13.6575 27.576 11.9408 27.0437 9.81835 27.0437H6.16644V37.2184ZM8.85076 31.051V29.11H9.75591C10.6299 29.11 11.0356 29.3604 11.0356 29.9866C11.0356 30.6127 10.6299 31.051 9.75591 31.051H8.85076ZM8.85076 35.1522V32.9294H9.94322C11.0044 32.9294 11.5038 33.2424 11.5038 33.9938C11.5038 34.7451 11.0044 35.1522 9.94322 35.1522H8.85076ZM17.5965 32.9763L17.7682 32.2719C18.0055 31.2983 18.2676 30.0805 18.486 29.0474H18.5485C18.7982 30.0648 19.0603 31.2985 19.2976 32.2719L19.4693 32.9763H17.5965ZM20.4525 37.2184H23.2928L20.2027 27.0437H16.9566L13.8665 37.2184H16.6132L17.1126 35.0582H19.953L20.4524 37.2184H20.4525ZM23.9733 37.2184H26.5328V34.2755C26.5328 33.0233 26.3143 31.5519 26.1895 30.3935H26.2519L27.2195 32.6633L29.4668 37.2184H32.2135V27.0437H29.6541V29.9866C29.6541 31.2381 29.8725 32.7728 29.9974 33.8685H29.935L28.9674 31.5832L26.7201 27.0437H23.9733V37.2184ZM33.0823 37.2184H35.7666V34.6825L36.7342 33.3051L38.9816 37.2184H41.9156L38.2949 31.1762L41.3225 27.0437H38.3885L35.829 30.8318H35.7666V27.0437H33.0823V37.2184Z" fill="#005EC2"/>
</g>
<defs>
<clipPath id="clip0_11_67218">
<rect width="48" height="48" fill="white" transform="translate(0 0.5)"/>
</clipPath>
</defs>
</svg>
